<svg xmlns="http://www.w3.org/2000/svg">
    <title>symbols defs</title>
    <defs>
        <symbol id="cross" viewBox="0 0 94.926 94.926"
                style="enable-background:new 0 0 94.926 94.926;">
            <title>Cross</title>
            <path d="M55.931,47.463L94.306,9.09c0.826-0.827,0.826-2.167,0-2.994L88.833,0.62C88.436,0.224,87.896,0,87.335,0
		c-0.562,0-1.101,0.224-1.498,0.62L47.463,38.994L9.089,0.62c-0.795-0.795-2.202-0.794-2.995,0L0.622,6.096
		c-0.827,0.827-0.827,2.167,0,2.994l38.374,38.373L0.622,85.836c-0.827,0.827-0.827,2.167,0,2.994l5.473,5.476
		c0.397,0.396,0.936,0.62,1.498,0.62s1.1-0.224,1.497-0.62l38.374-38.374l38.374,38.374c0.397,0.396,0.937,0.62,1.498,0.62
		s1.101-0.224,1.498-0.62l5.473-5.476c0.826-0.827,0.826-2.167,0-2.994L55.931,47.463z"/>
        </symbol>
        <symbol id="other" viewBox="0 0 24 24"
                style="enable-background:new 0 0 94.926 94.926;">
            <title>Other</title>
            <path
                    d="M2 6C2 5.44772 2.44772 5 3 5H21C21.5523 5 22 5.44772 22 6C22 6.55228 21.5523 7 21 7H3C2.44772 7 2 6.55228 2 6Z"
                    fill="currentColor"
            />
            <path
                    d="M2 12.0322C2 11.4799 2.44772 11.0322 3 11.0322H21C21.5523 11.0322 22 11.4799 22 12.0322C22 12.5845 21.5523 13.0322 21 13.0322H3C2.44772 13.0322 2 12.5845 2 12.0322Z"
                    fill="currentColor"
            />
            <path
                    d="M3 17.0645C2.44772 17.0645 2 17.5122 2 18.0645C2 18.6167 2.44772 19.0645 3 19.0645H21C21.5523 19.0645 22 18.6167 22 18.0645C22 17.5122 21.5523 17.0645 21 17.0645H3Z"
                    fill="currentColor"
            />
        </symbol>
        <symbol id="search" viewBox="0 0 487.95 487.95"
                style="enable-background:new 0 0 487.95 487.95;">
            <path d="M481.8,453l-140-140.1c27.6-33.1,44.2-75.4,44.2-121.6C386,85.9,299.5,0.2,193.1,0.2S0,86,0,191.4s86.5,191.1,192.9,191.1
			c45.2,0,86.8-15.5,119.8-41.4l140.5,140.5c8.2,8.2,20.4,8.2,28.6,0C490,473.4,490,461.2,481.8,453z M41,191.4
			c0-82.8,68.2-150.1,151.9-150.1s151.9,67.3,151.9,150.1s-68.2,150.1-151.9,150.1S41,274.1,41,191.4z"/>
        </symbol>
        <symbol id="auth_icon" viewBox="0 0 24 24">
            <path
                    fill-rule="evenodd"
                    clip-rule="evenodd"
                    d="M16 9C16 11.2091 14.2091 13 12 13C9.79086 13 8 11.2091 8 9C8 6.79086 9.79086 5 12 5C14.2091 5 16 6.79086 16 9ZM14 9C14 10.1046 13.1046 11 12 11C10.8954 11 10 10.1046 10 9C10 7.89543 10.8954 7 12 7C13.1046 7 14 7.89543 14 9Z"
                    fill="currentColor"
            />
            <path
                    fill-rule="evenodd"
                    clip-rule="evenodd"
                    d="M12 1C5.92487 1 1 5.92487 1 12C1 18.0751 5.92487 23 12 23C18.0751 23 23 18.0751 23 12C23 5.92487 18.0751 1 12 1ZM3 12C3 14.0902 3.71255 16.014 4.90798 17.5417C6.55245 15.3889 9.14627 14 12.0645 14C14.9448 14 17.5092 15.3531 19.1565 17.4583C20.313 15.9443 21 14.0524 21 12C21 7.02944 16.9706 3 12 3C7.02944 3 3 7.02944 3 12ZM12 21C9.84977 21 7.87565 20.2459 6.32767 18.9878C7.59352 17.1812 9.69106 16 12.0645 16C14.4084 16 16.4833 17.1521 17.7538 18.9209C16.1939 20.2191 14.1881 21 12 21Z"
                    fill="currentColor"
            />
        </symbol>
        <symbol id="arrow_left" viewBox="0 0 24 24">
            <path fill-rule="evenodd" clip-rule="evenodd"
                  d="M14.5303 18.5303C14.2374 18.8232 13.7626 18.8232 13.4697 18.5303L7.46967 12.5303C7.17678 12.2374 7.17678 11.7626 7.46967 11.4697L13.4697 5.46967C13.7626 5.17678 14.2374 5.17678 14.5303 5.46967C14.8232 5.76256 14.8232 6.23744 14.5303 6.53033L9.06066 12L14.5303 17.4697C14.8232 17.7626 14.8232 18.2374 14.5303 18.5303Z"
                  fill="#030D45"/>
        </symbol>
        <symbol id="arrow_down" viewBox="0 0 330 330"
                style="enable-background:new 0 0 330 330;">
            <path id="XMLID_225_" d="M325.607,79.393c-5.857-5.857-15.355-5.858-21.213,0.001l-139.39,139.393L25.607,79.393
	c-5.857-5.857-15.355-5.858-21.213,0.001c-5.858,5.858-5.858,15.355,0,21.213l150.004,150c2.813,2.813,6.628,4.393,10.606,4.393
	s7.794-1.581,10.606-4.394l149.996-150C331.465,94.749,331.465,85.251,325.607,79.393z"/>
        </symbol>
        <symbol id="arrow_up" viewBox="0 0 330 330"
                style="enable-background:new 0 0 330 330;">
            <path id="XMLID_224_" d="M325.606,229.393l-150.004-150C172.79,76.58,168.974,75,164.996,75c-3.979,0-7.794,1.581-10.607,4.394
	l-149.996,150c-5.858,5.858-5.858,15.355,0,21.213c5.857,5.857,15.355,5.858,21.213,0l139.39-139.393l139.397,139.393
	C307.322,253.536,311.161,255,315,255c3.839,0,7.678-1.464,10.607-4.394C331.464,244.748,331.464,235.251,325.606,229.393z"/>

        </symbol>
        <symbol id="comments" viewBox="0 0 16 16">
            <path d="M3 11.2c0 0.1 0 0.1 0 0 0 0.1 0 0.1 0 0 0 0 0 0 0 0z"/>
            <path d="M8.3 1c-4.4 0-8.3 2.6-8.3 5.6 0 2 1.1 3.7 3 4.7 0 0 0 0 0 0s0 0.1 0 0.1c-0.1 1.3-0.9 1.7-0.9 1.7l-1.8 0.9h2c2.5 0 4.3-1.1 5.1-1.9 0.3 0 0.5 0 0.8 0 4.3 0 7.8-2.5 7.8-5.6s-3.4-5.5-7.7-5.5zM8.2 11.1c-0.3 0-0.7 0-0.9 0h-0.3l-0.2 0.2c-0.5 0.5-1.6 1.4-3.3 1.7 0.3-0.5 0.5-1.1 0.5-2v-0.3l-0.3-0.1c-1.8-0.9-2.7-2.3-2.7-4 0-2.4 3.5-4.6 7.3-4.6 3.7 0 6.7 2 6.7 4.6 0 2.4-3.1 4.5-6.8 4.5z"/>
        </symbol>
        <symbol id="trash_bin" viewBox="0 0 16 16">
            <rect width="16" height="16" id="icon-bound" fill="none"/>
            <path d="M11,5h2v8.5c0,0.825-0.675,1.5-1.5,1.5h-7C3.675,15,3,14.325,3,13.5V5h2v8h2V5h2v8h2V5z M2,2h12v2H2V2z M6,0h4v1H6V0z"/>
        </symbol>
        <symbol id="new_article_pen" viewBox="0 0 449.213 449.213">
            <path d="M415.035,142.109l21.016-21.016c8.487-8.487,13.162-19.772,13.162-31.775c0-12.003-4.675-23.288-13.162-31.775L391.66,13.15
	c-17.521-17.519-46.028-17.521-63.551,0L47.611,293.649c-1.649,1.649-2.891,3.66-3.627,5.873L0.767,429.469
	c-1.792,5.388-0.388,11.325,3.627,15.34c2.859,2.859,6.692,4.394,10.608,4.394c1.583,0,3.181-0.251,4.731-0.767l129.946-43.218
	c2.213-0.736,4.225-1.978,5.873-3.627l238.269-238.269l3.153,3.153c9.56,9.559,14.131,22.741,12.543,36.167
	c-1.589,13.426-9.11,25.178-20.638,32.243l-71.469,43.804c-29.461,18.056-47.874,49.449-49.256,83.976
	c-0.331,8.277,6.11,15.256,14.389,15.587c0.204,0.008,0.407,0.013,0.61,0.013c8.007,0,14.654-6.328,14.978-14.401
	c0.98-24.503,14.048-46.783,34.956-59.597l71.47-43.804c19.41-11.897,32.077-31.688,34.752-54.296
	c2.675-22.608-5.023-44.807-21.122-60.905L415.035,142.109z M349.322,34.364c5.824-5.825,15.301-5.824,21.125,0l44.392,44.393
	c2.821,2.821,4.375,6.572,4.375,10.562s-1.554,7.741-4.375,10.563l-35.865,35.865l-65.516-65.517L349.322,34.364z M66.55,326.731
	l55.921,55.921l-83.786,27.866L66.55,326.731z M141.411,373.307l-65.516-65.516L299.316,84.37l65.516,65.517L141.411,373.307z"/>
        </symbol>
        <symbol id="edit_article_pen" viewBox="796 796 200 200">
            <path d="M989.732,874.138c-3.462,0-6.268,2.806-6.268,6.268v91.41c0,6.423-5.227,11.648-11.648,11.648H820.184
		c-6.423,0-11.648-5.226-11.648-11.648v-151.63c0-6.423,5.226-11.648,11.648-11.648h95.599c3.462,0,6.268-2.806,6.268-6.268
		c0-3.461-2.806-6.268-6.268-6.268h-95.599c-13.335,0-24.184,10.849-24.184,24.184v151.63c0,13.335,10.849,24.184,24.184,24.184
		h151.632c13.334,0,24.184-10.849,24.184-24.184v-91.41C996,876.944,993.193,874.138,989.732,874.138z"/>
            <path d="M829.716,963.686h49.934l107.182-107.182c9.43-9.43,9.43-24.772,0-34.203l-15.731-15.732
		c-4.567-4.567-10.641-7.083-17.101-7.083c-6.461,0-12.533,2.516-17.102,7.083l-107.182,107.18V963.686z M874.654,950.955
		l-32.208-32.207l78.466-78.465l32.207,32.207L874.654,950.955z M945.762,815.434c2.201-2.2,5.127-3.412,8.238-3.412
		s6.037,1.211,8.237,3.412l15.73,15.731c4.544,4.542,4.544,11.933,0.001,16.475l-12.924,12.924c-1.69,1.691-4.433,1.691-6.125,0
		l-26.081-26.082c-1.691-1.691-1.691-4.434,0-6.125L945.762,815.434z"/>
        </symbol>
        <symbol id="ok" viewBox="0 0 24 24" aria-labelledby="okIconTitle" stroke-width="2" stroke-linecap="round" stroke-linejoin="round" fill="none">
            <polyline points="4 13 9 18 20 7"/>
        </symbol>
    </defs>
</svg>