<svg xmlns="http://www.w3.org/2000/svg">
    <title>symbols defs</title>
    <defs>
        <symbol id="cross" viewBox="0 0 94.926 94.926"
                style="enable-background:new 0 0 94.926 94.926;">
            <title>Cross</title>
            <path d="M55.931,47.463L94.306,9.09c0.826-0.827,0.826-2.167,0-2.994L88.833,0.62C88.436,0.224,87.896,0,87.335,0
		c-0.562,0-1.101,0.224-1.498,0.62L47.463,38.994L9.089,0.62c-0.795-0.795-2.202-0.794-2.995,0L0.622,6.096
		c-0.827,0.827-0.827,2.167,0,2.994l38.374,38.373L0.622,85.836c-0.827,0.827-0.827,2.167,0,2.994l5.473,5.476
		c0.397,0.396,0.936,0.62,1.498,0.62s1.1-0.224,1.497-0.62l38.374-38.374l38.374,38.374c0.397,0.396,0.937,0.62,1.498,0.62
		s1.101-0.224,1.498-0.62l5.473-5.476c0.826-0.827,0.826-2.167,0-2.994L55.931,47.463z"/>
        </symbol>
        <symbol id="other" viewBox="0 0 24 24"
                style="enable-background:new 0 0 94.926 94.926;">
            <title>Other</title>
            <path
                    d="M2 6C2 5.44772 2.44772 5 3 5H21C21.5523 5 22 5.44772 22 6C22 6.55228 21.5523 7 21 7H3C2.44772 7 2 6.55228 2 6Z"
                    fill="currentColor"
            />
            <path
                    d="M2 12.0322C2 11.4799 2.44772 11.0322 3 11.0322H21C21.5523 11.0322 22 11.4799 22 12.0322C22 12.5845 21.5523 13.0322 21 13.0322H3C2.44772 13.0322 2 12.5845 2 12.0322Z"
                    fill="currentColor"
            />
            <path
                    d="M3 17.0645C2.44772 17.0645 2 17.5122 2 18.0645C2 18.6167 2.44772 19.0645 3 19.0645H21C21.5523 19.0645 22 18.6167 22 18.0645C22 17.5122 21.5523 17.0645 21 17.0645H3Z"
                    fill="currentColor"
            />
        </symbol>
        <symbol id="search" viewBox="0 0 487.95 487.95"
                style="enable-background:new 0 0 487.95 487.95;">
            <path d="M481.8,453l-140-140.1c27.6-33.1,44.2-75.4,44.2-121.6C386,85.9,299.5,0.2,193.1,0.2S0,86,0,191.4s86.5,191.1,192.9,191.1
			c45.2,0,86.8-15.5,119.8-41.4l140.5,140.5c8.2,8.2,20.4,8.2,28.6,0C490,473.4,490,461.2,481.8,453z M41,191.4
			c0-82.8,68.2-150.1,151.9-150.1s151.9,67.3,151.9,150.1s-68.2,150.1-151.9,150.1S41,274.1,41,191.4z"/>
        </symbol>
        <symbol id="auth_icon" viewBox="0 0 24 24">
            <path
                    fill-rule="evenodd"
                    clip-rule="evenodd"
                    d="M16 9C16 11.2091 14.2091 13 12 13C9.79086 13 8 11.2091 8 9C8 6.79086 9.79086 5 12 5C14.2091 5 16 6.79086 16 9ZM14 9C14 10.1046 13.1046 11 12 11C10.8954 11 10 10.1046 10 9C10 7.89543 10.8954 7 12 7C13.1046 7 14 7.89543 14 9Z"
                    fill="currentColor"
            />
            <path
                    fill-rule="evenodd"
                    clip-rule="evenodd"
                    d="M12 1C5.92487 1 1 5.92487 1 12C1 18.0751 5.92487 23 12 23C18.0751 23 23 18.0751 23 12C23 5.92487 18.0751 1 12 1ZM3 12C3 14.0902 3.71255 16.014 4.90798 17.5417C6.55245 15.3889 9.14627 14 12.0645 14C14.9448 14 17.5092 15.3531 19.1565 17.4583C20.313 15.9443 21 14.0524 21 12C21 7.02944 16.9706 3 12 3C7.02944 3 3 7.02944 3 12ZM12 21C9.84977 21 7.87565 20.2459 6.32767 18.9878C7.59352 17.1812 9.69106 16 12.0645 16C14.4084 16 16.4833 17.1521 17.7538 18.9209C16.1939 20.2191 14.1881 21 12 21Z"
                    fill="currentColor"
            />
        </symbol>
        <symbol id="arrow_left" viewBox="0 0 24 24">
            <path d="M.22,10.22A.75.75,0,0,0,1.28,11.28l5-5a.75.75,0,0,0,0-1.061l-5-5A.75.75,0,0,0,.22,1.28l4.47,4.47Z"
                  transform="translate(14.75 17.75) rotate(180)"/>
        </symbol>
        <symbol id="arrow_down" viewBox="0 0 330 330"
                style="enable-background:new 0 0 330 330;">
            <path id="XMLID_225_" d="M325.607,79.393c-5.857-5.857-15.355-5.858-21.213,0.001l-139.39,139.393L25.607,79.393
	c-5.857-5.857-15.355-5.858-21.213,0.001c-5.858,5.858-5.858,15.355,0,21.213l150.004,150c2.813,2.813,6.628,4.393,10.606,4.393
	s7.794-1.581,10.606-4.394l149.996-150C331.465,94.749,331.465,85.251,325.607,79.393z"/>
        </symbol>
        <symbol id="arrow_up" viewBox="0 0 330 330"
                style="enable-background:new 0 0 330 330;">
            <path id="XMLID_224_" d="M325.606,229.393l-150.004-150C172.79,76.58,168.974,75,164.996,75c-3.979,0-7.794,1.581-10.607,4.394
	l-149.996,150c-5.858,5.858-5.858,15.355,0,21.213c5.857,5.857,15.355,5.858,21.213,0l139.39-139.393l139.397,139.393
	C307.322,253.536,311.161,255,315,255c3.839,0,7.678-1.464,10.607-4.394C331.464,244.748,331.464,235.251,325.606,229.393z"/>

        </symbol>
        <symbol id="comments" viewBox="0 0 16 16">
            <path d="M3 11.2c0 0.1 0 0.1 0 0 0 0.1 0 0.1 0 0 0 0 0 0 0 0z"/>
            <path d="M8.3 1c-4.4 0-8.3 2.6-8.3 5.6 0 2 1.1 3.7 3 4.7 0 0 0 0 0 0s0 0.1 0 0.1c-0.1 1.3-0.9 1.7-0.9 1.7l-1.8 0.9h2c2.5 0 4.3-1.1 5.1-1.9 0.3 0 0.5 0 0.8 0 4.3 0 7.8-2.5 7.8-5.6s-3.4-5.5-7.7-5.5zM8.2 11.1c-0.3 0-0.7 0-0.9 0h-0.3l-0.2 0.2c-0.5 0.5-1.6 1.4-3.3 1.7 0.3-0.5 0.5-1.1 0.5-2v-0.3l-0.3-0.1c-1.8-0.9-2.7-2.3-2.7-4 0-2.4 3.5-4.6 7.3-4.6 3.7 0 6.7 2 6.7 4.6 0 2.4-3.1 4.5-6.8 4.5z"/>
        </symbol>
    </defs>
</svg>